<svg id="eZUPv6oIijs1" xmlns="http://www.w3.org/2000/svg" xmlns:xlink="http://www.w3.org/1999/xlink" viewBox="0 0 1300 750" shape-rendering="geometricPrecision" text-rendering="geometricPrecision"><g id="eZUPv6oIijs2" transform="matrix(0.799655 0 0 0.75 -0.799299 0)"><path id="eZUPv6oIijs3" d="M53.6801,140.149L53.9943,228.314C53.715,273.422,1.47129,254.621,1.3142,316.321L1,403.382C1,448.192,53.8372,409.345,53.8372,499.842C53.8372,590.34,1.47129,552.457,1,596.461L1,859.693C1,999.842,1.4713,999.369,140.956,1000L682.07,999.684C752.049,999.684,760.776,947.069,822.027,947.227L1222.87,947.227C1292.85,947.385,1240.48,999.842,1310.46,999.842L1537.38,1000C1537.38,1000,1624.5,999.526,1624.66,912.151L1624.81,631.853C1624.5,586.902,1582.36,592.374,1581.8,545.985L1581.94,320.039C1581.52,274.65,1625.01,274.51,1626.7,229.261L1626.7,93.5143C1626.84,3.17445,1575.36,0.473569,1485.01,0.473569L856.466,0C769.19,0,796.403,47.7043,705.775,48.2831C617.399,48.2831,630.141,0.438458,542.707,0.438458L193.165,0.315677C79.7059,0.315677,53.6801,35.5502,53.6801,140.149ZM1536.91,403.382L1537.22,876.6C1537.38,947.227,1537.07,947.069,1502.15,946.911L1397.89,947.227C1352.98,947.069,1370.12,912.308,1310.3,912.308L769.347,912.308C707.311,911.993,707.45,953.225,635.412,953.225L140.799,947.227C115.245,947.069,88.5906,946.912,88.5906,912.151L88.7477,684.152C88.7477,548.406,141.306,637.623,140.747,500.754L140.799,140.149C140.799,96.303,140.957,52.7729,193.165,52.4572L332.808,52.615C419.927,52.615,359.462,87.5338,454.995,87.6916L542.271,87.8495L542.585,175.383L856.78,175.383L856.466,87.8495L1135.91,88.0073C1179.86,87.6916,1161.78,52.4572,1205.73,52.7729L1449.95,52.7729C1484.7,52.9307,1485.01,53.0886,1485.01,88.3231L1485.01,316.005C1484.7,367.989,1537.22,368.463,1536.91,403.382ZM594.637,87.5864L647.212,87.7968L629.443,140.412L577.077,140.412L594.637,87.5864ZM682.123,87.7968L734.384,87.7968L717.156,140.201L664.563,140.096L682.123,87.7968ZM769.399,87.6916L751.63,140.412L804.1,140.412L821.887,87.7968L769.399,87.6916Z" fill="rgb(17,17,17)" stroke="rgb(158,158,158)" stroke-width="4.92187"/><path id="eZUPv6oIijs4" d="M682.589,87.9895L734.85,88.5156L717.622,140.394L665.029,140.289L682.589,87.9895Z" fill="none" stroke="rgb(0,0,0)" stroke-width="0.984374"/><path id="eZUPv6oIijs5" d="M769.865,87.7792L822.493,88.0422C811.264,123.084,805.288,140.605,804.566,140.605C803.845,140.605,786.354,140.499,752.096,140.289C763.977,105.767,769.9,88.2636,769.865,87.7792Z" fill="none" stroke="rgb(0,0,0)" stroke-width="0.984374"/><path id="eZUPv6oIijs6" d="M629.909,140.642L647.678,88.2001L595.103,87.7792L577.543,140.342L629.909,140.642Z" fill="none" stroke="rgb(0,0,0)" stroke-width="0.984374"/><g id="eZUPv6oIijs7"><path id="eZUPv6oIijs8" d="M1485.01,64.7702L1485.01,60.7458L1472.56,52.6152L1462.19,52.4573L1191.16,52.4573L1169.18,64.7702L1167.57,76.0385C1160.18,83.7372,1155.99,87.5866,1154.99,87.5866C1153.5,87.5866,1124.85,87.5866,1124.47,87.5866C1124.23,87.5866,1107.1,87.5866,1073.11,87.5866C1050.59,87.5866,1039.09,87.5866,1038.62,87.5866C1038.16,87.5866,977.541,87.5866,856.78,87.5866L856.466,175.383L542.271,175.383L542.271,88.5156L463.805,87.5866L424.553,87.5866L398.117,76.0385L384.099,64.7702C380.894,62.0872,379.159,60.7458,378.892,60.7458C378.491,60.7458,365.273,52.7731,364.472,52.7731C363.938,52.7731,353.383,52.7731,332.807,52.7731L296.381,52.7731L179.808,52.7731L164.788,60.7458L155.192,64.7702L151.02,76.0385L140.956,93.5145C140.817,114.104,140.747,124.538,140.747,124.818C140.747,125.097,140.817,265.487,140.956,545.986C133.403,567.444,129.626,578.03,129.626,577.744C129.626,577.316,115.555,596.461,115.128,596.461C114.844,596.461,110.296,602.219,101.483,613.734L95.9396,631.853L88.7477,657.435L88.7477,920.901C93.5423,928.488,95.9396,932.505,95.9396,932.951C95.9396,933.397,102.336,938.051,115.128,946.912L140.747,947.227L296.381,947.227L647.678,953.225L664.563,953.225L682.589,946.912L705.775,932.951L734.384,920.901L751.63,912.309L948.17,912.309L1205.73,912.309L1323.95,912.309C1335.46,918.037,1342.42,920.901,1344.83,920.901C1347.24,920.901,1354.87,924.918,1367.72,932.951C1380.04,942.258,1386.33,946.912,1386.6,946.912C1387,946.912,1522.76,946.912,1523.56,946.912C1524.1,946.912,1528.55,942.258,1536.91,932.951L1536.91,896.512L1537.22,695.947L1536.91,403.382C1536.91,408.154,1536.91,408.154,1536.91,403.382C1536.91,398.609,1532.46,389.539,1523.56,376.173C1509.29,365.289,1502.15,359.752,1502.15,359.561C1502.15,359.37,1496.44,352.019,1485.01,337.507L1485.01,320.039L1485.01,64.7702Z" fill="rgb(12,12,12)" stroke="none" stroke-width="1"/><path id="eZUPv6oIijs9" d="M1485.01,64.7702L1485.01,60.7458L1472.56,52.6152L1462.19,52.4573L1191.16,52.4573L1169.18,64.7702L1167.57,76.0385C1160.18,83.7372,1155.99,87.5866,1154.99,87.5866C1153.5,87.5866,1124.85,87.5866,1124.47,87.5866C1124.23,87.5866,1107.1,87.5866,1073.11,87.5866C1050.59,87.5866,1039.09,87.5866,1038.62,87.5866C1038.16,87.5866,977.541,87.5866,856.78,87.5866L856.466,175.383L542.271,175.383L542.271,88.5156L463.805,87.5866L424.553,87.5866L398.117,76.0385L384.099,64.7702C380.894,62.0872,379.159,60.7458,378.892,60.7458C378.491,60.7458,365.273,52.7731,364.472,52.7731C363.938,52.7731,353.383,52.7731,332.807,52.7731L296.381,52.7731L179.808,52.7731L164.788,60.7458L155.192,64.7702L151.02,76.0385L140.956,93.5145C140.817,114.104,140.747,124.538,140.747,124.818C140.747,125.097,140.817,265.487,140.956,545.986C133.403,567.444,129.626,578.03,129.626,577.744C129.626,577.316,115.555,596.461,115.128,596.461C114.844,596.461,110.296,602.219,101.483,613.734L95.9396,631.853L88.7477,657.435L88.7477,920.901C93.5423,928.488,95.9396,932.505,95.9396,932.951C95.9396,933.397,102.336,938.051,115.128,946.912L140.747,947.227L296.381,947.227L647.678,953.225L664.563,953.225L682.589,946.912L705.775,932.951L734.384,920.901L751.63,912.309L948.17,912.309L1205.73,912.309L1323.95,912.309C1335.46,918.037,1342.42,920.901,1344.83,920.901C1347.24,920.901,1354.87,924.918,1367.72,932.951C1380.04,942.258,1386.33,946.912,1386.6,946.912C1387,946.912,1522.76,946.912,1523.56,946.912C1524.1,946.912,1528.55,942.258,1536.91,932.951L1536.91,896.512L1537.22,695.947L1536.91,403.382C1536.91,408.154,1536.91,408.154,1536.91,403.382C1536.91,398.609,1532.46,389.539,1523.56,376.173C1509.29,365.289,1502.15,359.752,1502.15,359.561C1502.15,359.37,1496.44,352.019,1485.01,337.507L1485.01,320.039L1485.01,64.7702Z" fill="none" stroke="rgb(96,96,96)" stroke-width="2.95312"/></g></g>

<style>
    #eZUPv6oIijs3 {
        animation: color-change 20s infinite;
    }
    @keyframes color-change {
        0% { stroke: #fff; }
        50% { stroke: #ddd; }
        100% { stroke: #333; }
    }
</style>
</svg>