<svg id="eBtsPlJ9nmC1" xmlns="http://www.w3.org/2000/svg" xmlns:xlink="http://www.w3.org/1999/xlink" viewBox="0 0 207 127" shape-rendering="geometricPrecision" text-rendering="geometricPrecision"><g id="eBtsPlJ9nmC2" clip-path="url(#eBtsPlJ9nmC9)"><g id="eBtsPlJ9nmC3"><path id="eBtsPlJ9nmC4" d="M7.04473,18.0559L7.0846,29.1899C7.04916,34.8864,0.420137,32.5121,0.400204,40.3039L0.360336,51.2984C0.360336,56.9573,7.06466,52.0515,7.06466,63.48C7.06466,74.9086,0.420137,70.1246,0.360336,75.6816L0.360336,108.924C0.360336,126.623,0.420136,126.563,18.1189,126.643L86.779,126.603C95.6583,126.603,96.7658,119.958,104.538,119.978L155.399,119.978C164.279,119.998,157.634,126.623,166.513,126.623L195.306,126.643C206.735,126.643,206.361,126.583,206.38,115.549L206.4,80.1511C206.361,74.4745,201.014,75.1655,200.943,69.3073L200.961,40.7735C200.908,35.0415,206.425,35.0238,206.64,29.3095L206.64,12.1666C206.657,0.757944,200.126,0.416861,188.662,0.416861L108.908,0.357056C97.8333,0.357056,101.286,6.38143,89.7868,6.45452C78.573,6.45452,80.1899,0.412427,69.0957,0.412427L24.7435,0.396921C10.3471,0.396921,7.04473,4.84655,7.04473,18.0559ZM195.246,51.2984L195.286,111.059C195.306,119.978,195.266,119.958,190.837,119.939L177.607,119.978C171.909,119.958,174.084,115.569,166.493,115.569L97.8532,115.569C89.9817,115.529,89.9994,120.736,80.8588,120.736L18.099,119.978C14.8565,119.958,11.4744,119.939,11.4744,115.549L11.4943,86.7558C11.4943,69.6129,18.1632,80.8798,18.0924,63.5952L18.099,18.0559C18.099,12.5188,18.1189,7.02152,24.7435,6.98165L42.4623,7.00158C53.5165,7.00158,45.8443,11.4113,57.9662,11.4313L69.0404,11.4512L69.0802,22.5055L108.947,22.5055L108.908,11.4512L144.365,11.4711C149.942,11.4313,147.647,6.98165,153.224,7.02152L184.212,7.02152C188.622,7.04145,188.662,7.06139,188.662,11.511L188.662,40.2641C188.622,46.8289,195.286,46.8887,195.246,51.2984ZM75.6849,11.418L82.356,11.4446L80.1013,18.0891L73.4568,18.0891L75.6849,11.418ZM86.7857,11.4446L93.4169,11.4446L91.2309,18.0625L84.5576,18.0492L86.7857,11.4446ZM97.8599,11.4313L95.6052,18.0891L102.263,18.0891L104.52,11.4446L97.8599,11.4313Z" fill="rgb(255,255,255)" stroke="rgb(255,255,255)" stroke-width="2.95312"/><path id="eBtsPlJ9nmC5" d="M86.8448,11.4243L93.4761,11.4908L91.29,18.0423L84.6167,18.029L86.8448,11.4243Z" fill="rgb(255,0,165)" stroke="rgb(255,255,255)" stroke-width="0.984374"/><path id="eBtsPlJ9nmC6" d="M97.919,11.4423L104.597,11.4755C103.172,15.9007,102.414,18.1133,102.322,18.1133C102.231,18.1133,100.011,18.1001,95.6643,18.0735C97.1719,13.7138,97.9235,11.5034,97.919,11.4423Z" fill="rgb(255,0,165)" stroke="rgb(255,255,255)" stroke-width="0.984374"/><path id="eBtsPlJ9nmC7" d="M80.1604,18.0735L82.4151,11.4509L75.744,11.3977L73.5159,18.0356L80.1604,18.0735Z" fill="rgb(255,0,165)" stroke="rgb(255,255,255)" stroke-width="0.984374"/><path id="eBtsPlJ9nmC8" d="M188.662,8.53663L188.662,8.02841L187.081,7.00163L185.766,6.98169L151.375,6.98169L148.587,8.53663L148.383,9.95967C147.445,10.9319,146.913,11.418,146.787,11.418C146.598,11.418,142.961,11.418,142.914,11.418C142.883,11.418,140.71,11.418,136.397,11.418C133.539,11.418,132.08,11.418,132.021,11.418C131.961,11.418,124.27,11.418,108.947,11.418L108.908,22.5055L69.0404,22.5055L69.0404,11.5353L59.0841,11.418L54.1035,11.418L50.7492,9.95967L48.9704,8.53663C48.5638,8.19782,48.3436,8.02841,48.3097,8.02841C48.2589,8.02841,46.5817,7.02157,46.4801,7.02157C46.4123,7.02157,45.0731,7.02157,42.4623,7.02157L37.8402,7.02157L23.0487,7.02157L21.1429,8.02841L19.9253,8.53663L19.3958,9.95967L18.1189,12.1666C18.1012,14.7668,18.0924,16.0845,18.0924,16.1198C18.0924,16.1551,18.1012,33.8843,18.1189,69.3073C17.1605,72.0172,16.6813,73.3541,16.6813,73.318C16.6813,73.2639,14.8958,75.6817,14.8417,75.6817C14.8056,75.6817,14.2285,76.4088,13.1103,77.8629L12.4069,80.1512L11.4944,83.3818L11.4944,116.654C12.1027,117.612,12.4069,118.119,12.4069,118.176C12.4069,118.232,13.2185,118.82,14.8417,119.939L18.0924,119.978L37.8402,119.978L82.4152,120.736L84.5575,120.736L86.8448,119.939L89.7868,118.176L93.4169,116.654L95.6052,115.569L120.544,115.569L153.224,115.569L168.224,115.569C169.685,116.292,170.569,116.654,170.874,116.654C171.18,116.654,172.149,117.161,173.779,118.176C175.342,119.351,176.141,119.939,176.175,119.939C176.226,119.939,193.451,119.939,193.553,119.939C193.621,119.939,194.185,119.351,195.246,118.176L195.246,113.574L195.286,88.2453L195.246,51.2985C195.246,51.9012,195.246,51.9012,195.246,51.2985C195.246,50.6957,194.682,49.5504,193.553,47.8624C191.742,46.488,190.837,45.7887,190.837,45.7646C190.837,45.7404,190.112,44.8121,188.662,42.9794L188.662,40.7735L188.662,8.53663Z" fill="rgb(255,255,255)" stroke="rgb(167,0,255)" stroke-width="2.95312"/></g><clipPath id="eBtsPlJ9nmC9"><rect id="eBtsPlJ9nmC10" width="207" height="127" rx="20" ry="20" fill="rgb(255,255,255)" stroke="none" stroke-width="1"/></clipPath></g><g id="eBtsPlJ9nmC11" transform="matrix(1 0 0 1 0 0.000004)"><ellipse id="eBtsPlJ9nmC12" rx="25.044466" ry="25.044466" transform="matrix(1 0 0 1 103.500168 63.858845)" fill="rgb(0,0,0)" stroke="none" stroke-width="0"/><polygon id="eBtsPlJ9nmC13" points="0,-23.019232 19.93524,11.509616 -19.93524,11.509616 0,-23.019232" transform="matrix(0 0.63535 -0.63535 0 102.976935 63.858845)" fill="rgb(255,255,255)" stroke="none" stroke-width="0"/></g></svg>