<svg width="20" height="10" viewBox="0 0 20 10" fill="none" xmlns="http://www.w3.org/2000/svg">
<path d="M10 0C12.8884 0 15.7796 0.35991 18.6723 1.07921C19.4037 1.26107 19.9306 1.88811 19.9937 2.62811L20 2.77752V5.8716C20 8.0807 18.2634 9.8842 16.081 9.9915L15.8751 9.9966H13.4048C12.68 9.9966 11.9873 9.7106 11.4748 9.2056L11.3396 9.0624L10.6866 8.3198L10.6036 8.2368C10.2536 7.9292 9.7346 7.9373 9.3947 8.2385L9.3137 8.32L8.6614 9.0621C8.1828 9.6066 7.51059 9.9381 6.7927 9.9895L6.5959 9.9966H4.12538C1.91604 9.9966 0.11234 8.2598 0.00504994 6.0771L0 5.8712V2.77749C0 1.97366 0.54761 1.2732 1.3277 1.07921C4.22037 0.35991 7.11156 0 10 0ZM10 1.5C7.23459 1.5 4.46489 1.84479 1.68967 2.53488C1.60052 2.55705 1.53262 2.62553 1.50903 2.71083L1.5 2.77749V5.8712C1.5 7.2654 2.58674 8.4057 3.95934 8.4914L4.12538 8.4966H6.5959C6.91045 8.4966 7.21167 8.3781 7.44105 8.1676L7.53478 8.0718L8.187 7.3297C9.0672 6.3283 10.5925 6.23 11.5939 7.1102L11.707 7.2163L11.8131 7.3294L12.4661 8.072C12.6737 8.3081 12.9615 8.4561 13.271 8.4894L13.4048 8.4966H15.8751C17.269 8.4966 18.4092 7.41 18.4948 6.0377L18.5 5.8716V2.77748C18.5 2.66266 18.4218 2.5626 18.3103 2.53488C15.5351 1.84479 12.7654 1.5 10 1.5ZM14.7517 3L16.2517 3.004C16.6659 3.00511 17.0008 3.34179 16.9997 3.756C16.9987 4.1357 16.7157 4.4487 16.3495 4.4974L16.2477 4.504L14.7477 4.5C14.3335 4.4989 13.9986 4.1622 13.9997 3.748C14.0007 3.36831 14.2837 3.05526 14.6499 3.00658L14.7517 3ZM5.25033 3C5.66454 3 6.00033 3.33579 6.00033 3.75C6.00033 4.1297 5.71817 4.4435 5.3521 4.4932L5.25033 4.5H3.74708C3.33286 4.5 2.99708 4.1642 2.99708 3.75C2.99708 3.3703 3.27923 3.05651 3.64531 3.00685L3.74708 3H5.25033ZM10 2.5C10.4142 2.5 10.75 2.83579 10.75 3.25C10.75 3.66421 10.4142 4 10 4C9.5858 4 9.25 3.66421 9.25 3.25C9.25 2.83579 9.5858 2.5 10 2.5Z" fill="#35F2DF"/>
</svg>
