<svg id="eusSLebdXvI1" xmlns="http://www.w3.org/2000/svg" xmlns:xlink="http://www.w3.org/1999/xlink" viewBox="0 0 57 57" shape-rendering="geometricPrecision" text-rendering="geometricPrecision"><path id="eusSLebdXvI2" d="M28.1,34.3999C30.5301,34.3999,32.5,32.4299,32.5,29.9999C32.5,27.5698,30.5301,25.5999,28.1,25.5999C25.67,25.5999,23.7,27.5698,23.7,29.9999C23.7,32.4299,25.67,34.3999,28.1,34.3999Z" fill="rgb(0,0,0)" stroke="none" stroke-width="1"/><path id="eusSLebdXvI3" d="M33.6,19.2L22.6,19.2C21,19.2,19.6,19.7,18.7,20.6C17.8,21.5,17.3,22.9,17.3,24.5L17.3,35.5C17.3,37.1,17.8,38.5,18.8,39.5C19.8,40.4,21.1,40.9,22.7,40.9L33.6,40.9C35.2,40.9,36.6,40.4,37.5,39.5C38.5,38.6,39,37.1999,39,35.5999L39,24.6C39,23,38.5,21.7,37.6,20.7C36.6,19.7,35.3,19.2,33.6,19.2ZM28.1,36.7999C24.3,36.7999,21.3,33.7,21.3,30C21.3,26.2,24.4,23.2,28.1,23.2C31.8,23.2,35,26.2,35,30C35,33.8,31.9,36.7999,28.1,36.7999ZM35.2,24.5C34.3,24.5,33.6,23.8,33.6,22.9C33.6,22,34.3,21.2999,35.2,21.2999C36.1,21.2999,36.8,22,36.8,22.9C36.8,23.8,36.1,24.5,35.2,24.5Z" fill="rgb(0,0,0)" stroke="none" stroke-width="1"/><path id="eusSLebdXvI4" d="M28.3,5.19995C14.7,5.19995,3.70001,16.1999,3.70001,29.7999C3.70001,43.4,14.7,54.4,28.3,54.4C41.9,54.4,52.9,43.4,52.9,29.7999C53,16.1999,41.9,5.19995,28.3,5.19995ZM41.4,35.5999C41.4,37.8999,40.6,39.8999,39.2,41.2999C37.8,42.6999,35.8,43.4,33.6,43.4L22.7,43.4C20.5,43.4,18.5,42.6999,17.1,41.2999C15.6,39.8999,14.9,37.8999,14.9,35.5999L14.9,24.6C14.9,20,18,16.8,22.7,16.8L33.7,16.8C36,16.8,37.9,17.6,39.3,19C40.7,20.4,41.4,22.3,41.4,24.6L41.4,35.5999Z" fill="rgb(0,0,0)" stroke="none" stroke-width="1"/><path id="eusSLebdXvI5" d="M29.719376,23.2L32.5,24.5L33.7,26.032644L35,28.5L35,31.034659L34.286433,33.245694L32.5,35.499999L29.719376,36.799899L26.16722,36.799899C25.173002,36.460484,23.4369,35.265967,22.7,34.399899C22.128784,33.604688,21.412333,31.927551,21.3,31.034659L21.3,28.5C21.54388,27.742642,22.120623,26.488033,22.6,26.032644L23.7,24.499999L26.16722,23.2L29.719376,23.2Z" transform="matrix(1 0 0 1 0 0.000001)" fill="rgb(255,255,255)" stroke="rgb(63,87,135)" stroke-width="0.114"/><ellipse id="eusSLebdXvI6" rx="1.464787" ry="1.464787" transform="matrix(1.32553 0 0 1.32553 35 22.74564)" fill="rgb(255,255,255)" stroke="none" stroke-width="0"/></svg>