<svg id="eIyZW9Nxjgq1" xmlns="http://www.w3.org/2000/svg" xmlns:xlink="http://www.w3.org/1999/xlink" viewBox="0 0 512 512" shape-rendering="geometricPrecision" text-rendering="geometricPrecision"><path id="eIyZW9Nxjgq2" d="M256,0C114.615,0,0,114.615,0,256C0,397.385,114.615,512,256,512C397.385,512,512,397.385,512,256C512,114.615,397.385,0,256,0ZM389.059,161.936L343.591,379C342.473174,384.335081,338.717234,388.734612,333.623526,390.675429C328.529818,392.616246,322.79857,391.831545,318.414,388.593L252.278,339.732L212.21,377.532C211.150532,378.531546,209.733854,379.063444,208.278345,379.008157C206.822836,378.95287,205.45059,378.315036,204.47,377.238L203.609,376.292L210.571,308.917L336.055,194.266C337.34138,193.092589,337.517482,191.130579,336.460621,189.746848C335.40376,188.363117,333.464556,188.016728,331.994,188.949L171.515,290.519L102.4,267.307C98.634294,266.041943,96.071589,262.544727,95.999756,258.572856C95.927924,254.600986,98.362499,251.013393,102.08,249.613L372.5,147.744C376.748684,146.145153,381.530941,146.987376,384.977781,149.941513C388.42462,152.895649,389.988796,157.492679,389.059,161.936Z" fill="rgb(0,0,0)" stroke="none" stroke-width="1"/><path id="eIyZW9Nxjgq3" d="M95.999756,258.572856L102.4,249.613L372.5,147.744Q376.795495,145.546487,380.886638,147.744Q384.977781,149.941513,389.059,155.051063L367.06002,267.307L343.591,376.292C344.659395,380.369097,340.08329,385.74841,336.905236,389.06863Q326.697184,392.757858,322.555592,390.675429Q318.414,388.593,252.278,339.732L212.21,379.008157C208.829202,380.03419,204.491549,378.728909,203.609,376.292L210.571,308.917L336.055,194.266L331.994,188.949L171.515,290.519C149.296556,284.520077,91.94553,270.075872,95.999756,258.572856Z" fill="rgb(255,255,255)" stroke="rgb(63,87,135)" stroke-width="1.024"/></svg>