<svg id="e5yz0P1igWR1" xmlns="http://www.w3.org/2000/svg" xmlns:xlink="http://www.w3.org/1999/xlink" viewBox="0 0 512 512" shape-rendering="geometricPrecision" text-rendering="geometricPrecision"><path id="e5yz0P1igWR2" d="M256,0C114.615,0,0,114.615,0,256C0,397.385,114.615,512,256,512C397.385,512,512,397.385,512,256C512,114.615,397.385,0,256,0ZM392.363,342.9L359.878,342.9C352.750769,342.908089,346.008048,339.668874,341.56,334.1C331.818,321.869,312.626,300.182,292.475,290.867C290.103027,289.756678,287.328362,289.934102,285.117128,291.337494C282.905893,292.740887,281.564117,295.176022,281.559,297.795L281.559,329.923C281.559796,333.364438,280.193247,336.665197,277.760064,339.098943C275.326881,341.532689,272.026439,342.9,268.585,342.9L253.564,342.9C234.03,342.9,191.964,331.009,158.445,282.181C129.885,240.581,117.154,208.341,109.73,182.201C108.85502,179.095157,109.486089,175.758763,111.434962,173.187044C113.383836,170.615324,116.425261,169.105521,119.652,169.108L152.514,169.108C159.246693,169.102211,165.183869,173.518901,167.114,179.969C173.225,200.408,189.053,244.499,217.031,266.455C218.771649,267.827023,221.142955,268.084568,223.137572,267.11823C225.132188,266.151891,226.399832,264.131371,226.402,261.915L226.402,210.449C226.402,200.278,221.994,190.102,215.114,182.149C213.089299,179.819505,212.611405,176.522246,213.891427,173.713776C215.171449,170.905305,217.973584,169.102992,221.06,169.103L271.726,169.103C277.158987,169.103,281.563448,173.507013,281.564,178.94L281.564,248.265C281.564288,250.310852,282.706617,252.185403,284.524714,253.123504C286.342811,254.061604,288.5325,253.906307,290.2,252.721C299.5,246.101,307.465,236.321,314.791,225.328C324.011,211.5,335.262,188.642,340.906,176.779C343.136021,172.088384,347.866266,169.099775,353.06,169.1L388.9,169.1C391.942789,169.098704,394.769733,170.671512,396.372952,173.257678C397.976171,175.843844,398.127505,179.07532,396.773,181.8C387.729,199.94,370.114,233.218,353.538,252.742C348.597493,258.588284,349.323661,267.330928,355.161,272.282C365.966,281.514,382.834,298.582,401.02,327.011C403.063611,330.180699,403.21247,334.213568,401.408097,337.525302C399.603724,340.837036,396.134384,342.898556,392.363,342.9Z" transform="matrix(1 0 0 1 0 -0.299618)" fill="rgb(0,0,0)" stroke="none" stroke-width="1"/><path id="e5yz0P1igWR3" d="M109.73,173.187044C112.227058,171.142321,116.93944,168.601562,119.652,169.1C136.411294,168.551022,145.388248,169.328983,146.971841,169.1C148.555434,168.871017,156.58217,168.712409,167.113999,173.713776L177.702967,210.449L192.572867,237.011352L214.337744,265.22289L226.401995,266.455Q226.401994,205.784559,226.401994,204.793233Q226.401994,203.801907,223.137566,194.384303L213.891413,179.669382L213.891413,173.713776L217.030986,168.800382L277.760058,169.108C288.93856,178.732375,284.081639,226.380966,281.563994,248.265L290.199994,252.721L314.790994,225.328L333.341257,192.401649L341.559993,173.187044L353.059992,169.1L388.899992,169.1L396.772992,173.187044C397.764414,176.156223,398.597621,180.810806,396.372944,182.201C394.140675,188.289189,384.05123,206.839902,377.455294,218.671807L359.877992,248.265L348.211156,261.915L374.481314,290.867L401.408089,327.011C402.503874,330.953176,404.187258,336.841595,401.408088,337.525302C401.211852,341.261703,396.64172,342.985656,392.36299,342.9Q388.08426,342.814344,353.059989,342.9C349.987975,341.469764,344.237303,337.072451,341.559988,334.1L324.914973,315.821825L302.610121,297.795L290.199986,290.867L281.563986,297.795L281.558986,329.923C281.929794,333.580906,279.830906,339.969695,277.76005,342.9C258.695133,343.674168,256.184481,343.600875,247.591489,342.9C238.998497,342.199125,234.899226,340.295489,213.891413,334.1C202.673034,327.211418,183.221745,311.979704,175.224638,303.430242L146.971827,266.455L125.162639,225.328L111.434948,189.427669C109.944584,184.705741,108.727545,176.519145,109.73,173.187044Z" transform="matrix(1 0 0 1 -0.446317 -0.991847)" fill="rgb(255,255,255)" stroke="rgb(63,87,135)" stroke-width="1.024"/></svg>