<svg width="500" height="700" viewBox="0 0 500 700" fill="none" xmlns="http://www.w3.org/2000/svg">
<path d="M349.419 68.9143H68.5808V517.086H349.419V68.9143Z" fill="url(#paint0_linear_465_772)"/>
<path d="M102.234 483.432H34.9275V550.739H102.234V483.432Z" fill="#fff"/>
<path d="M383.073 483.432H315.766V550.739H383.073V483.432Z" fill="#fff"/>
<path d="M383.073 35.2611H315.766V102.568H383.073V35.2611Z" fill="#fff"/>
<path d="M102.234 35.2611H34.9275V102.568H102.234V35.2611Z" fill="#fff"/>
<path d="M28.9021 114.618C32.2298 114.618 34.9275 111.921 34.9275 108.593C34.9275 105.265 32.2298 102.568 28.9021 102.568C25.5744 102.568 22.8767 105.265 22.8767 108.593C22.8767 111.921 25.5744 114.618 28.9021 114.618Z" fill="white"/>
<path d="M28.9021 483.432C32.2298 483.432 34.9275 480.735 34.9275 477.407C34.9275 474.079 32.2298 471.382 28.9021 471.382C25.5744 471.382 22.8767 474.079 22.8767 477.407C22.8767 480.735 25.5744 483.432 28.9021 483.432Z" fill="white"/>
<path d="M28.9021 562.79C32.2298 562.79 34.9275 560.092 34.9275 556.764C34.9275 553.437 32.2298 550.739 28.9021 550.739C25.5744 550.739 22.8767 553.437 22.8767 556.764C22.8767 560.092 25.5744 562.79 28.9021 562.79Z" fill="white"/>
<path d="M108.26 562.79C111.587 562.79 114.285 560.092 114.285 556.764C114.285 553.437 111.587 550.739 108.26 550.739C104.932 550.739 102.234 553.437 102.234 556.764C102.234 560.092 104.932 562.79 108.26 562.79Z" fill="white"/>
<path d="M309.741 562.79C313.068 562.79 315.766 560.092 315.766 556.764C315.766 553.437 313.068 550.739 309.741 550.739C306.413 550.739 303.715 553.437 303.715 556.764C303.715 560.092 306.413 562.79 309.741 562.79Z" fill="white"/>
<path d="M389.098 562.79C392.426 562.79 395.123 560.092 395.123 556.764C395.123 553.437 392.426 550.739 389.098 550.739C385.77 550.739 383.073 553.437 383.073 556.764C383.073 560.092 385.77 562.79 389.098 562.79Z" fill="white"/>
<path d="M389.098 483.432C392.426 483.432 395.123 480.735 395.123 477.407C395.123 474.079 392.426 471.382 389.098 471.382C385.77 471.382 383.073 474.079 383.073 477.407C383.073 480.735 385.77 483.432 389.098 483.432Z" fill="white"/>
<path d="M389.098 114.618C392.426 114.618 395.123 111.921 395.123 108.593C395.123 105.265 392.426 102.568 389.098 102.568C385.77 102.568 383.073 105.265 383.073 108.593C383.073 111.921 385.77 114.618 389.098 114.618Z" fill="white"/>
<path d="M389.098 35.2611C392.426 35.2611 395.123 32.5634 395.123 29.2357C395.123 25.908 392.426 23.2103 389.098 23.2103C385.77 23.2103 383.073 25.908 383.073 29.2357C383.073 32.5634 385.77 35.2611 389.098 35.2611Z" fill="white"/>
<path d="M309.741 35.2611C313.068 35.2611 315.766 32.5634 315.766 29.2357C315.766 25.908 313.068 23.2103 309.741 23.2103C306.413 23.2103 303.715 25.908 303.715 29.2357C303.715 32.5634 306.413 35.2611 309.741 35.2611Z" fill="white"/>
<path d="M108.26 35.2611C111.587 35.2611 114.285 32.5634 114.285 29.2357C114.285 25.908 111.587 23.2103 108.26 23.2103C104.932 23.2103 102.234 25.908 102.234 29.2357C102.234 32.5634 104.932 35.2611 108.26 35.2611Z" fill="white"/>
<path d="M28.9021 35.2611C32.2298 35.2611 34.9275 32.5634 34.9275 29.2357C34.9275 25.908 32.2298 23.2103 28.9021 23.2103C25.5744 23.2103 22.8767 25.908 22.8767 29.2357C22.8767 32.5634 25.5744 35.2611 28.9021 35.2611Z" fill="white"/>
<path d="M11.508 471.382C17.7868 471.382 22.8767 466.292 22.8767 460.013C22.8767 453.734 17.7868 448.644 11.508 448.644C5.22916 448.644 0.139191 453.734 0.139191 460.013C0.139191 466.292 5.22916 471.382 11.508 471.382Z" fill="white"/>
<path d="M11.508 585.527C17.7868 585.527 22.8767 580.437 22.8767 574.159C22.8767 567.88 17.7868 562.79 11.508 562.79C5.22916 562.79 0.139191 567.88 0.139191 574.159C0.139191 580.437 5.22916 585.527 11.508 585.527Z" fill="white"/>
<path d="M125.654 585.527C131.932 585.527 137.022 580.437 137.022 574.159C137.022 567.88 131.932 562.79 125.654 562.79C119.375 562.79 114.285 567.88 114.285 574.159C114.285 580.437 119.375 585.527 125.654 585.527Z" fill="white"/>
<path d="M292.346 585.527C298.625 585.527 303.715 580.437 303.715 574.159C303.715 567.88 298.625 562.79 292.346 562.79C286.068 562.79 280.978 567.88 280.978 574.159C280.978 580.437 286.068 585.527 292.346 585.527Z" fill="white"/>
<path d="M406.492 579.502C412.771 579.502 417.861 574.412 417.861 568.133C417.861 561.854 412.771 556.764 406.492 556.764C400.213 556.764 395.123 561.854 395.123 568.133C395.123 574.412 400.213 579.502 406.492 579.502Z" fill="white"/>
<path d="M406.492 477.407C412.771 477.407 417.861 472.317 417.861 466.038C417.861 459.759 412.771 454.669 406.492 454.669C400.213 454.669 395.123 459.759 395.123 466.038C395.123 472.317 400.213 477.407 406.492 477.407Z" fill="white"/>
<path d="M406.492 131.331C412.771 131.331 417.861 126.241 417.861 119.962C417.861 113.683 412.771 108.593 406.492 108.593C400.213 108.593 395.123 113.683 395.123 119.962C395.123 126.241 400.213 131.331 406.492 131.331Z" fill="white"/>
<path d="M406.492 23.2103C412.771 23.2103 417.861 18.1203 417.861 11.8415C417.861 5.56275 412.771 0.472778 406.492 0.472778C400.213 0.472778 395.123 5.56275 395.123 11.8415C395.123 18.1203 400.213 23.2103 406.492 23.2103Z" fill="white"/>
<path d="M298.372 23.2103C304.651 23.2103 309.74 18.1203 309.74 11.8415C309.74 5.56275 304.651 0.472778 298.372 0.472778C292.093 0.472778 287.003 5.56275 287.003 11.8415C287.003 18.1203 292.093 23.2103 298.372 23.2103Z" fill="white"/>
<path d="M11.508 23.2103C17.7868 23.2103 22.8767 18.1203 22.8767 11.8415C22.8767 5.56275 17.7868 0.472778 11.508 0.472778C5.22916 0.472778 0.139191 5.56275 0.139191 11.8415C0.139191 18.1203 5.22916 23.2103 11.508 23.2103Z" fill="white"/>
<path d="M349.419 102.568C409.114 192.496 404.816 381.557 349.419 483.432" stroke="white" stroke-width="1.28"/>
<path d="M68.5808 483.432C8.88585 393.504 13.1845 204.443 68.5808 102.568" stroke="white" stroke-width="1.28"/>
<defs>
<linearGradient id="paint0_linear_465_772" x1="209" y1="68.9143" x2="209" y2="517.086" gradientUnits="userSpaceOnUse">
<stop stop-color="#054A59"/>
<stop offset="1" stop-color="#2ABFBF"/>
</linearGradient>
</defs>
</svg>
