<svg id="ewD8J50bmfy1" xmlns="http://www.w3.org/2000/svg" xmlns:xlink="http://www.w3.org/1999/xlink" viewBox="0 0 418 586" shape-rendering="geometricPrecision" text-rendering="geometricPrecision"><defs><linearGradient id="ewD8J50bmfy2-fill" x1="209" y1="68.9143" x2="209" y2="517.086" spreadMethod="pad" gradientUnits="userSpaceOnUse" gradientTransform="matrix(1 0 0 1 0 0)"><stop id="ewD8J50bmfy2-fill-0" offset="0%" stop-color="rgb(238, 205, 163)"/><stop id="ewD8J50bmfy2-fill-1" offset="100%" stop-color="rgb(239, 98, 159)"/></linearGradient></defs><path id="ewD8J50bmfy2" d="M349.419,68.9143L68.5808,68.9143L68.5808,517.086L349.419,517.086L349.419,68.9143Z" fill="url(#ewD8J50bmfy2-fill)" stroke="none" stroke-width="1"/><path id="ewD8J50bmfy3" d="M102.234,483.432L34.9275,483.432L34.9275,550.739L102.234,550.739L102.234,483.432Z" fill="rgb(255,255,255)" stroke="none" stroke-width="1"/><path id="ewD8J50bmfy4" d="M383.073,483.432L315.766,483.432L315.766,550.739L383.073,550.739L383.073,483.432Z" fill="rgb(255,255,255)" stroke="none" stroke-width="1"/><path id="ewD8J50bmfy5" d="M383.073,35.2611L315.766,35.2611L315.766,102.568L383.073,102.568L383.073,35.2611Z" fill="rgb(255,255,255)" stroke="none" stroke-width="1"/><path id="ewD8J50bmfy6" d="M102.234,35.2611L34.9275,35.2611L34.9275,102.568L102.234,102.568L102.234,35.2611Z" fill="rgb(255,255,255)" stroke="none" stroke-width="1"/><path id="ewD8J50bmfy7" d="M28.9021,114.618C32.2298,114.618,34.9275,111.921,34.9275,108.593C34.9275,105.265,32.2298,102.568,28.9021,102.568C25.5744,102.568,22.8767,105.265,22.8767,108.593C22.8767,111.921,25.5744,114.618,28.9021,114.618Z" fill="rgb(255,255,255)" stroke="none" stroke-width="1"/><path id="ewD8J50bmfy8" d="M28.9021,483.432C32.2298,483.432,34.9275,480.735,34.9275,477.407C34.9275,474.079,32.2298,471.382,28.9021,471.382C25.5744,471.382,22.8767,474.079,22.8767,477.407C22.8767,480.735,25.5744,483.432,28.9021,483.432Z" fill="rgb(255,255,255)" stroke="none" stroke-width="1"/><path id="ewD8J50bmfy9" d="M28.9021,562.79C32.2298,562.79,34.9275,560.092,34.9275,556.764C34.9275,553.437,32.2298,550.739,28.9021,550.739C25.5744,550.739,22.8767,553.437,22.8767,556.764C22.8767,560.092,25.5744,562.79,28.9021,562.79Z" fill="rgb(255,255,255)" stroke="none" stroke-width="1"/><path id="ewD8J50bmfy10" d="M108.26,562.79C111.587,562.79,114.285,560.092,114.285,556.764C114.285,553.437,111.587,550.739,108.26,550.739C104.932,550.739,102.234,553.437,102.234,556.764C102.234,560.092,104.932,562.79,108.26,562.79Z" fill="rgb(255,255,255)" stroke="none" stroke-width="1"/><path id="ewD8J50bmfy11" d="M309.741,562.79C313.068,562.79,315.766,560.092,315.766,556.764C315.766,553.437,313.068,550.739,309.741,550.739C306.413,550.739,303.715,553.437,303.715,556.764C303.715,560.092,306.413,562.79,309.741,562.79Z" fill="rgb(255,255,255)" stroke="none" stroke-width="1"/><path id="ewD8J50bmfy12" d="M389.098,562.79C392.426,562.79,395.123,560.092,395.123,556.764C395.123,553.437,392.426,550.739,389.098,550.739C385.77,550.739,383.073,553.437,383.073,556.764C383.073,560.092,385.77,562.79,389.098,562.79Z" fill="rgb(255,255,255)" stroke="none" stroke-width="1"/><path id="ewD8J50bmfy13" d="M389.098,483.432C392.426,483.432,395.123,480.735,395.123,477.407C395.123,474.079,392.426,471.382,389.098,471.382C385.77,471.382,383.073,474.079,383.073,477.407C383.073,480.735,385.77,483.432,389.098,483.432Z" fill="rgb(255,255,255)" stroke="none" stroke-width="1"/><path id="ewD8J50bmfy14" d="M389.098,114.618C392.426,114.618,395.123,111.921,395.123,108.593C395.123,105.265,392.426,102.568,389.098,102.568C385.77,102.568,383.073,105.265,383.073,108.593C383.073,111.921,385.77,114.618,389.098,114.618Z" fill="rgb(255,255,255)" stroke="none" stroke-width="1"/><path id="ewD8J50bmfy15" d="M389.098,35.2611C392.426,35.2611,395.123,32.5634,395.123,29.2357C395.123,25.908,392.426,23.2103,389.098,23.2103C385.77,23.2103,383.073,25.908,383.073,29.2357C383.073,32.5634,385.77,35.2611,389.098,35.2611Z" fill="rgb(255,255,255)" stroke="none" stroke-width="1"/><path id="ewD8J50bmfy16" d="M309.741,35.2611C313.068,35.2611,315.766,32.5634,315.766,29.2357C315.766,25.908,313.068,23.2103,309.741,23.2103C306.413,23.2103,303.715,25.908,303.715,29.2357C303.715,32.5634,306.413,35.2611,309.741,35.2611Z" fill="rgb(255,255,255)" stroke="none" stroke-width="1"/><path id="ewD8J50bmfy17" d="M108.26,35.2611C111.587,35.2611,114.285,32.5634,114.285,29.2357C114.285,25.908,111.587,23.2103,108.26,23.2103C104.932,23.2103,102.234,25.908,102.234,29.2357C102.234,32.5634,104.932,35.2611,108.26,35.2611Z" fill="rgb(255,255,255)" stroke="none" stroke-width="1"/><path id="ewD8J50bmfy18" d="M28.9021,35.2611C32.2298,35.2611,34.9275,32.5634,34.9275,29.2357C34.9275,25.908,32.2298,23.2103,28.9021,23.2103C25.5744,23.2103,22.8767,25.908,22.8767,29.2357C22.8767,32.5634,25.5744,35.2611,28.9021,35.2611Z" fill="rgb(255,255,255)" stroke="none" stroke-width="1"/><path id="ewD8J50bmfy19" d="M349.419,102.568C409.114,192.496,404.816,381.557,349.419,483.432" fill="none" stroke="rgb(255,255,255)" stroke-width="1.28"/><path id="ewD8J50bmfy20" d="M68.5808,483.432C8.88585,393.504,13.1845,204.443,68.5808,102.568" fill="none" stroke="rgb(255,255,255)" stroke-width="1.28"/></svg>